<svg width="129" height="129" viewBox="0 0 129 129" fill="none" xmlns="http://www.w3.org/2000/svg">
<path d="M47.9991 94.1321C42.4768 94.056 38.0617 89.5176 38.1379 83.9952L38.6893 43.999C38.7654 38.4767 43.3039 34.0617 48.8262 34.1379L88.8224 34.6893C94.3447 34.7654 98.7597 39.3038 98.6836 44.8262L98.1322 84.8224C98.056 90.3447 93.5176 94.7597 87.9953 94.6836L47.9991 94.1321Z" fill="#673E6E"/>
<path d="M43.9991 94.1321C38.4768 94.056 34.0617 89.5176 34.1379 83.9952L34.6893 43.999C34.7654 38.4767 39.3039 34.0617 44.8262 34.1379L84.8224 34.6893C90.3447 34.7654 94.7597 39.3038 94.6836 44.8262L94.1322 84.8224C94.056 90.3447 89.5176 94.7597 83.9953 94.6836L43.9991 94.1321Z" fill="#6B1978"/>
<path d="M39.9991 94.1321C34.4768 94.056 30.0617 89.5176 30.1379 83.9952L30.6893 43.999C30.7654 38.4767 35.3039 34.0617 40.8262 34.1379L80.8224 34.6893C86.3447 34.7654 90.7597 39.3038 90.6836 44.8262L90.1322 84.8224C90.056 90.3447 85.5176 94.7597 79.9953 94.6836L39.9991 94.1321Z" fill="#480653"/>
<rect x="18.3532" y="66.2116" width="59.5" height="59.5" rx="15.75" transform="rotate(-47.4862 18.3532 66.2116)" fill="white" stroke="#9949A6" stroke-width="0.5"/>
<line x1="46" y1="71.5" x2="68" y2="71.5" stroke="#5F0456"/>
<line x1="46" y1="73.5" x2="64" y2="73.5" stroke="#5F0456"/>
<line x1="46" y1="77.5" x2="64" y2="77.5" stroke="#5F0456"/>
<line x1="46" y1="81.5" x2="64" y2="81.5" stroke="#5F0456"/>
<line x1="46" y1="75.5" x2="68" y2="75.5" stroke="#5F0456"/>
<line x1="46" y1="79.5" x2="68" y2="79.5" stroke="#5F0456"/>
<path d="M71.7124 57.3125H68.1794L68.0677 56.8388L73.1858 54.2827C75.0595 49.6825 75.5962 44.9009 75.7286 43.2711C74.1137 43.4016 69.406 43.9254 64.8438 45.7522C59.9615 47.7072 55.3223 51.1204 54.7158 57.0688L54.7154 57.0722L54.7154 57.0722C54.5901 58.1531 54.5101 59.2392 54.4545 60.3284L62.7317 52.0596C62.7317 52.0595 62.7317 52.0595 62.7318 52.0595C63.1346 51.6567 63.7884 51.6568 64.1912 52.0596C64.594 52.4624 64.594 53.1153 64.1912 53.5181L64.1911 53.5182L51.5202 66.1764L51.3435 65.9995L51.5202 66.1764C51.1599 66.5362 51.1599 67.12 51.5202 67.4799C51.8805 67.8398 52.465 67.84 52.826 67.4799L71.7124 57.3125ZM71.7124 57.3125C71.3428 57.9495 70.9399 58.5651 70.5016 59.1507L63.4081 61.5128L63.4871 62H67.7031C66.1089 63.2016 64.204 64.0294 61.9173 64.262L61.9173 64.262L61.9139 64.2624C59.8821 64.4971 57.8377 64.6133 55.7914 64.6201L55.6884 64.6205L55.6156 64.6932L52.8261 67.4798L71.7124 57.3125Z" fill="#5F0456" stroke="#360031" stroke-width="0.5"/>
</svg>
